<?xml version="1.0" encoding="utf-8"?>
<!-- Generator: Adobe Illustrator 22.1.0, SVG Export Plug-In . SVG Version: 6.00 Build 0)  -->
<svg version="1.1" id="Layer_1" xmlns="http://www.w3.org/2000/svg" xmlns:xlink="http://www.w3.org/1999/xlink" x="0px" y="0px"
	 viewBox="0 0 126.2 36" style="enable-background:new 0 0 126.2 36;" xml:space="preserve">
<style type="text/css">
	.st0{enable-background:new    ;}
	.st1{fill:#FFFFFF;}
</style>
<title>Asset 2</title>
<g id="Layer_2_1_">
	<g id="Layer_2-2">
		<g class="st0">
			<path class="st1" d="M13.4,6.5v11.4h-2.1v-1.5c-0.8,1.2-2.7,1.7-4.1,1.7c-4,0-6.1-2.8-6.1-5.9c0-3.1,2.2-5.8,6.1-5.8
				c1.4,0,3.1,0.3,4.1,1.7l0-1.5H13.4z M7.2,8.1c-2.5,0-4,1.8-4,4c0,2.2,1.5,4.2,4.1,4.1c1.9,0,4-1.4,4-4.1
				C11.3,9.4,9.1,8.1,7.2,8.1z"/>
		</g>
		<g class="st0">
			<path class="st1" d="M18.6,6.5v1.4c0.8-1.2,2.1-1.6,3.5-1.6c3.5,0,4.9,2.2,4.9,5.4v6.1h-2v-6.1c0-2.1-0.5-3.6-3-3.6
				c-2.2,0-3.4,1.5-3.4,3.5v6.2h-2.1V6.5H18.6z"/>
		</g>
		<g class="st0">
			<path class="st1" d="M32.9,4v2.5h2.5v1.6h-2.5v6.4c0,1.7,1.1,1.8,2.6,1.6v1.7c-2.8,0.2-4.6-0.4-4.6-3.4V8.1h-1.7V6.5h1.7V4.4
				L32.9,4z"/>
		</g>
		<g class="st0">
			<path class="st1" d="M42.9,18.1c-3.1,0-6.1-2-6.1-5.9c0-3.9,3.1-5.9,6.2-5.9c3.1,0,6.1,2,6.1,5.9C49,16.1,46,18.1,42.9,18.1z
				 M42.9,16.2c2.1,0,4.1-1.3,4.1-4s-2-4.1-4.1-4.1c-2.1,0-4.1,1.3-4.1,4.1C38.8,14.9,40.9,16.2,42.9,16.2z"/>
			<path class="st1" d="M53.9,6.5v1.4c0.8-1.2,2.1-1.6,3.5-1.6c3.5,0,4.9,2.2,4.9,5.4v6.1h-2v-6.1c0-2.1-0.5-3.6-3-3.6
				c-2.2,0-3.4,1.5-3.4,3.5v6.2h-2.1V6.5H53.9z"/>
		</g>
		<g class="st0">
			<path class="st1" d="M14.1,34.1H12V19.3h2.1v1.5c0.8-1.2,2.4-1.7,3.8-1.7c4,0,5.9,2.8,5.9,5.9c0,3.1-2,5.8-5.9,5.8
				c-1.4,0-2.8-0.3-3.8-1.7V34.1z M18,29.1c2.5,0,3.8-2,3.8-4c0-2.1-1.3-4.2-3.9-4.1c-1.9,0-3.7,1.4-3.7,4.1
				C14.1,27.8,16,29.1,18,29.1z"/>
		</g>
		<g class="st0">
			<path class="st1" d="M38.4,19.3v11.4h-2.1v-1.5c-0.8,1.2-2.7,1.7-4.1,1.7c-4,0-6.1-2.8-6.1-5.9c0-3.1,2.2-5.8,6.1-5.8
				c1.4,0,3.1,0.3,4.1,1.7l0-1.5H38.4z M32.2,21c-2.5,0-4,1.8-4,4c0,2.2,1.5,4.2,4.1,4.1c1.9,0,4-1.4,4-4.1
				C36.3,22.3,34.1,20.9,32.2,21z"/>
		</g>
		<g class="st0">
			<path class="st1" d="M43.6,19.3v1.4c0.8-1.2,2.1-1.6,3.5-1.6c3.5,0,4.9,2.2,4.9,5.4v6.1h-2v-6.1c0-2.1-0.5-3.6-3-3.6
				c-2.2,0-3.4,1.5-3.4,3.5v6.2h-2.1V19.3H43.6z"/>
			<path class="st1" d="M57.3,24.8l1.7-2.1l3.2-3.4h2.5l-4.6,4.9l4.9,6.3v0.2h-2.4l-3.8-5l-1.5,1.6v3.5h-2.1V16h2.1V24.8z"/>
			<path class="st1" d="M69.3,16.4c0,1.6-2.6,1.6-2.6,0C66.8,14.9,69.3,14.8,69.3,16.4z M69.1,19.2H67v11.5h2.1V19.2z"/>
			<path class="st1" d="M74.6,19.3v1.4c0.8-1.2,2.1-1.6,3.5-1.6c3.5,0,4.9,2.2,4.9,5.4v6.1h-2v-6.1c0-2.1-0.5-3.6-3-3.6
				c-2.2,0-3.4,1.5-3.4,3.5v6.2h-2.1V19.3H74.6z"/>
		</g>
	</g>
</g>
</svg>
